<svg id="Capa_1" enable-background="new 0 0 512 512" height="512" viewBox="0 0 512 512" width="512" xmlns="http://www.w3.org/2000/svg"><g><path d="m318.3 283.173c-10.503-4.292-17.3-13.74-17.3-24.053v-6.24c0-10.313 6.797-19.761 17.3-24.053 26.895-10.972 47.666-32.915 60.073-63.472 20.889-51.445 15.015-119.447-1.113-156.361h-121.26-121.26c-16.099 36.855-21.899 104.872-.938 156.493 12.393 30.498 33.105 52.412 59.897 63.34 10.503 4.292 17.3 13.74 17.3 24.053v6.24c0 10.313-6.797 19.761-17.3 24.053-26.895 10.972-47.666 32.915-60.073 63.472-20.889 51.445-15.015 119.447 1.113 156.361h121.261 121.26c16.099-36.855 21.899-104.872.938-156.493-12.379-30.498-33.092-52.398-59.898-63.34z" fill="#f2f9ff"/><path d="m378.197 346.513c-12.378-30.498-33.091-52.397-59.897-63.34-10.503-4.292-17.3-13.74-17.3-24.053v-6.24c0-10.313 6.797-19.761 17.3-24.053 26.895-10.972 47.666-32.915 60.073-63.472 20.889-51.445 15.015-119.447-1.113-156.361h-121.26v494.012h121.26c16.098-36.856 21.899-104.872.937-156.493z" fill="#dae4f9"/><path d="m256 406.771c-28.835-5.237-59.002-10.519-103.614-13.105-1.469 9.891-2.239 19.96-2.228 29.912.026 21.486 3.226 42.239 8.635 58.422l30.26 15h66.947 51.947l45.231-15c3.019-9.179 5.242-20.05 6.68-31.655 1.187-9.591 1.798-19.664 1.657-29.94-41.443-2.377-68.352-6.863-105.515-13.634z" fill="#ffdf40"/><path d="m353.178 482c3.019-9.179 5.242-20.05 6.68-31.655 1.187-9.591 1.798-19.664 1.657-29.94-41.442-2.376-68.351-6.863-105.515-13.634v90.229h51.947z" fill="#ffbe40"/><path d="m256 119.861c-33.604 13.348-57.4 22.592-96.634 27.678 9.84 28.782 27.788 46.219 45.672 53.514 21.856 8.936 35.962 29.268 35.962 51.827v33.12c0 8.284 6.716 15 15 15s15-6.716 15-15v-33.12c0-22.559 14.106-42.891 35.962-51.826 19.512-7.954 34.175-23.76 43.608-46.978 7.833-19.286 10.871-40.538 11.193-61.024-46.942 4.401-77.332 15.513-105.763 26.809z" fill="#ffdf40"/><path d="m271 286v-33.12c0-22.559 14.106-42.891 35.962-51.826 19.512-7.954 34.175-23.76 43.608-46.978 7.833-19.286 10.871-40.538 11.193-61.024-46.943 4.4-77.333 15.513-105.764 26.808v181.14c8.285 0 15.001-6.716 15.001-15z" fill="#ffbe40"/><path d="m256 482h-165v30h165 165v-30z" fill="#5279cc"/><path d="m256 482h165v30h-165z" fill="#364ab3"/><path d="m256 0h-165v30h165 165v-30z" fill="#5279cc"/><path d="m256 0h165v30h-165z" fill="#364ab3"/></g></svg>